<?xml version="1.0" encoding="UTF-8" standalone="no"?>
<svg
   xmlns:dc="http://purl.org/dc/elements/1.1/"
   xmlns:cc="http://creativecommons.org/ns#"
   xmlns:rdf="http://www.w3.org/1999/02/22-rdf-syntax-ns#"
   xmlns:svg="http://www.w3.org/2000/svg"
   xmlns="http://www.w3.org/2000/svg"
   xmlns:sodipodi="http://sodipodi.sourceforge.net/DTD/sodipodi-0.dtd"
   xmlns:inkscape="http://www.inkscape.org/namespaces/inkscape"
   height="16"
   viewBox="0 0 16 16"
   width="16"
   version="1.1"
   id="svg4"
   sodipodi:docname="camera_icon.svg"
   inkscape:version="0.92.3 (2405546, 2018-03-11)">
  <metadata
     id="metadata10">
    <rdf:RDF>
      <cc:Work
         rdf:about="">
        <dc:format>image/svg+xml</dc:format>
        <dc:type
           rdf:resource="http://purl.org/dc/dcmitype/StillImage" />
      </cc:Work>
    </rdf:RDF>
  </metadata>
  <defs
     id="defs8" />
  <sodipodi:namedview
     pagecolor="#ffffff"
     bordercolor="#666666"
     borderopacity="1"
     objecttolerance="10"
     gridtolerance="10"
     guidetolerance="10"
     inkscape:pageopacity="0"
     inkscape:pageshadow="2"
     inkscape:window-width="1600"
     inkscape:window-height="838"
     id="namedview6"
     showgrid="false"
     inkscape:zoom="14.75"
     inkscape:cx="-11.76997"
     inkscape:cy="3.8108783"
     inkscape:window-x="-8"
     inkscape:window-y="-8"
     inkscape:window-maximized="1"
     inkscape:current-layer="svg4" />
  <g
     id="g852"
     transform="translate(0.06779659,0.74576271)"
     style="fill:#fc9c9c;fill-opacity:1">
    <path
       style="fill:#fc9c9c;stroke-width:0.03427242;fill-opacity:1"
       d="m 8.0835524,17.04892 c 0.061165,-0.02223 0.1637046,-0.09131 0.2278657,-0.153494 0.1247841,-0.120945 0.3230481,-0.162158 0.440623,-0.09159 0.043558,0.02614 0.08004,0.02347 0.1332649,-0.0098 0.059579,-0.03721 0.088429,-0.03767 0.1542259,-0.0025 0.065281,0.03494 0.096684,0.03489 0.1623348,-2.4e-4 0.060812,-0.03254 0.099245,-0.03401 0.1519729,-0.0058 0.1026681,0.05495 0.1690076,0.04666 0.2464441,-0.03077 0.098619,-0.09862 0.088726,-0.25333 -0.021758,-0.340237 -0.11137,-0.0876 -0.1902699,-0.0901 -0.2642456,-0.0084 -0.087065,0.09621 -0.068998,0.116786 0.080369,0.09155 0.1344583,-0.02272 0.1370897,-0.0212 0.1370897,0.079 0,0.161383 -0.08837,0.16379 -0.2439508,0.0066 -0.1387615,-0.140155 -0.2251962,-0.168288 -0.2968609,-0.09662 -0.031065,0.03107 -0.059504,0.03023 -0.122724,-0.0036 -0.04526,-0.02422 -0.1111171,-0.03536 -0.1463505,-0.02475 -0.042032,0.01266 -0.082724,-0.0067 -0.1183337,-0.05637 -0.0482,-0.0672 -0.051344,-0.202226 -0.02809,-1.206655 C 8.6247229,13.065994 8.6238569,12.986506 8.5508049,12.933 8.5153986,12.907233 8.0777312,12.584513 7.5782106,12.216012 7.07869,11.847509 6.6430018,11.54587 6.6100146,11.545702 c -0.078272,-4.01e-4 -0.077744,0.07299 0.00814,1.131125 0.037463,0.461578 0.1066448,1.332756 0.1537361,1.93595 0.05208,0.667097 0.1144987,1.234733 0.1593394,1.449038 0.040546,0.193776 0.062604,0.363425 0.049018,0.376997 -0.013586,0.01357 -0.2046201,0.02468 -0.4245212,0.02468 -0.2199012,0 -0.4190987,0.01248 -0.4426609,0.02773 -0.062093,0.04019 -0.056431,0.29786 0.00655,0.29786 0.027162,0 0.059935,-0.01707 0.072829,-0.03793 0.016335,-0.02643 0.032218,-0.02383 0.052386,0.0086 0.023563,0.03786 0.041878,0.03848 0.098533,0.0034 0.048841,-0.03028 0.06959,-0.03164 0.06959,-0.0046 0,0.02275 0.035473,0.03178 0.086499,0.02202 0.047574,-0.0091 0.09367,-0.0049 0.1024351,0.0093 0.019303,0.03123 0.4535586,0.0194 0.4862072,-0.01325 0.012719,-0.01272 0.081346,0.03373 0.1525044,0.10321 0.071158,0.06948 0.1877992,0.146679 0.259202,0.171543 0.1560201,0.05433 0.4308541,0.05322 0.5837564,-0.0024 z m 0.9762267,-0.403364 c 0.021183,-0.06355 0.094963,-0.07409 0.094963,-0.01357 0,0.02985 -0.024419,0.05426 -0.054265,0.05426 -0.029846,0 -0.04816,-0.01831 -0.040698,-0.0407 z m -0.3084519,0 c 0.021183,-0.06355 0.094963,-0.07409 0.094963,-0.01357 0,0.02985 -0.024419,0.05426 -0.054265,0.05426 -0.029846,0 -0.04816,-0.01831 -0.040699,-0.0407 z m -1.8585651,0.0084 c 0,-0.04628 0.062477,-0.07836 0.1033763,-0.05309 0.019157,0.01184 0.025959,0.03588 0.015113,0.05343 -0.025727,0.04163 -0.1184897,0.04136 -0.1184897,-3.46e-4 z m -0.239907,0 c 0,-0.01774 0.015423,-0.04178 0.034273,-0.05343 0.01885,-0.01165 0.034272,0.0029 0.034272,0.03225 0,0.02939 -0.015423,0.05343 -0.034272,0.05343 -0.01885,0 -0.034273,-0.01451 -0.034273,-0.03225 z M 7.5479436,16.39046 C 7.4188637,16.30005 7.3647835,16.132254 7.4157103,15.980179 c 0.1404052,-0.419274 0.7451315,-0.319207 0.7451315,0.1233 0,0.124978 -0.1390014,0.28459 -0.2205787,0.253286 -0.0313,-0.01201 -0.061664,0.0022 -0.074115,0.03462 -0.027835,0.07254 -0.2140964,0.072 -0.3182047,-9.22e-4 z M 13.467136,13.4992 c 0.449102,-0.106247 0.985532,-0.568671 1.232802,-1.062726 0.147448,-0.294606 0.24558,-0.657285 0.245742,-0.90822 3.34e-4,-0.516978 -0.30759,-1.017846 -0.735755,-1.196778 -0.774524,-0.323676 -1.894512,0.430285 -2.159614,1.453822 -0.08728,0.336985 -0.06009,0.845917 0.05896,1.103452 0.192087,0.415542 0.559554,0.64786 1.013792,0.640933 0.126529,-0.0019 0.281363,-0.01565 0.344075,-0.03048 z m -0.522314,-0.747569 c -0.176732,-0.102935 -0.277509,-0.325249 -0.274919,-0.606473 0.0032,-0.347883 0.110724,-0.600003 0.360152,-0.844512 0.234195,-0.229575 0.455785,-0.319569 0.730723,-0.296769 0.220868,0.01832 0.371694,0.123348 0.47064,0.327744 0.102399,0.211527 0.07957,0.601173 -0.05009,0.855112 -0.163769,0.320732 -0.434047,0.557292 -0.719637,0.629861 -0.151221,0.03843 -0.391128,0.0083 -0.516868,-0.06496 z M 11.73214,12.187999 c 0.01664,-0.557192 0.09364,-0.841768 0.320012,-1.182705 0.399628,-0.601884 1.210331,-1.0339536 1.94357,-1.0358399 0.171595,-4.414e-4 0.231339,-0.012599 0.231339,-0.047077 0,-0.025565 -0.15037,-0.2037064 -0.334156,-0.3958702 -0.33028,-0.3453354 -0.336542,-0.3497634 -0.539791,-0.3817252 -0.90423,-0.1421929 -1.769965,0.2900986 -2.168541,1.0828273 -0.226531,0.450547 -0.29857,0.728628 -0.29699,1.14642 0.0011,0.294044 0.01557,0.39407 0.07906,0.546907 0.10263,0.247073 0.284976,0.491005 0.476167,0.63699 0.264976,0.202325 0.272529,0.192669 0.289334,-0.369927 z M 8.602796,12.374632 C 8.6881786,12.215093 10.525591,7.7245061 10.525249,7.676209 10.525035,7.645953 10.215167,7.2587671 9.8366551,6.815796 8.6036885,5.3728604 8.6599289,5.440592 7.52746,4.0347831 6.9558583,3.3252161 6.201305,2.337304 5.6334202,1.5549788 5.4044043,1.239484 5.2346526,1.0372784 5.1939901,1.0315369 5.1137076,1.0202011 5.0795164,1.0774342 4.7663895,1.7472976 3.7976376,3.8197213 3.1621484,6.0811388 2.9672839,8.1494961 l -0.023941,0.2541191 0.2011117,0.1878201 c 1.7923604,1.6739027 3.2094031,2.7105227 5.1320892,3.7543167 0.1961079,0.106464 0.280722,0.113954 0.3262522,0.02888 z M 7.0884721,5.7999963 C 6.9525569,5.6748526 6.4436703,5.177474 5.957613,4.6947106 4.9471748,3.6911195 5.021499,3.8427469 5.2765606,3.30531 L 5.4380567,2.9650233 5.6770092,3.2710376 C 6.0977906,3.8099102 6.5527187,4.3476505 7.1239803,4.9814063 7.4302236,5.3211516 7.6808407,5.6223219 7.6809072,5.6506737 7.6810786,5.7188231 7.4363262,6.0237843 7.3797877,6.0258865 7.3554793,6.0267913 7.2243872,5.92514 7.0884721,5.7999963 Z M 10.330132,12.34236 c 0.241527,-0.0081 0.340682,-0.02417 0.353417,-0.05735 0.0097,-0.02537 -0.0094,-0.136619 -0.04255,-0.247215 -0.08373,-0.279441 -0.07606,-0.77071 0.01749,-1.121442 0.08521,-0.319463 0.317913,-0.823736 0.512002,-1.1095447 0.291536,-0.4293056 0.770197,-0.778446 1.209045,-0.8818898 0.454918,-0.1072319 1.146225,-0.041185 1.324792,0.1265691 0.04282,0.04023 0.188343,0.2245409 0.323378,0.4095798 0.137508,0.1884267 0.270169,0.3364346 0.301551,0.3364346 0.07954,0 0.617521,-0.9386244 0.617521,-1.0773907 0,-0.027255 -0.01384,-0.05811 -0.03076,-0.068567 -0.0346,-0.021383 -3.734387,-0.4648458 -3.878184,-0.4648458 -0.108136,0 0.01732,-0.2457086 -1.1498073,2.2519055 -0.4598561,0.984076 -0.8361018,1.811241 -0.8361018,1.838146 0,0.09163 0.1971764,0.101755 1.2782071,0.06561 z M 1.0152726,9.7831248 C 1.3614718,9.0003074 1.3783537,7.5414029 1.0615068,5.7876233 0.97830435,5.3270886 0.9894566,4.970326 1.0979775,4.6209275 1.1729203,4.379639 1.3480665,4.1416345 1.5137294,4.0559671 1.7281418,3.9450902 2.1817319,4.0107488 2.5701018,4.2088805 2.7798196,4.3158704 2.8155832,4.2968543 2.8882274,4.0397296 2.9798602,3.7153936 2.9735311,3.6684683 2.8300668,3.6085251 2.4249156,3.4392421 1.7484212,3.4158578 1.3698606,3.5580502 0.98483942,3.7026693 0.70759744,4.0670109 0.6236132,4.5387429 0.5491125,4.9572065 0.594581,6.2487752 0.72609598,7.4498359 c 0.0895868,0.8181506 0.0875801,1.1577115 -0.008463,1.431955 -0.0957808,0.273495 -0.0941374,0.5631069 0.004883,0.8606649 0.0986354,0.2963992 0.17496998,0.3070032 0.29275662,0.040669 z M 15.081939,8.3592499 c 0.07068,-0.043686 0.0097,-0.228376 -0.2605,-0.7894605 C 14.16828,6.2136778 13.159374,4.5328073 12.331063,3.4207413 L 12.028733,3.0148415 11.679887,2.879169 C 10.361974,2.3666084 5.9933077,0.73409257 5.8817256,0.71246882 5.8063263,0.69785698 5.7176464,0.67544478 5.6846591,0.66266391 5.5379252,0.60581194 5.6639319,0.83464873 6.3200733,1.8166198 c 0.8996659,1.3464256 1.8569873,2.6529679 2.7318516,3.7284034 0.6475826,0.7960473 1.7460891,2.0539632 1.8107021,2.0734621 0.03143,0.00948 0.951655,0.1799429 2.044946,0.3787957 1.09329,0.198853 2.018774,0.3684457 2.05663,0.3768726 0.03786,0.00843 0.09084,0.00172 0.117736,-0.014904 z M 3.1695067,6.240765 C 3.1785767,6.226095 3.2037687,6.0834364 3.2254977,5.9237451 3.2730581,5.5742013 3.3984468,4.9227884 3.4992653,4.5014806 3.7065329,3.6353355 3.9236731,3.0093837 4.2689009,2.2828452 4.5747714,1.639135 4.5709726,1.6695423 4.3708984,1.4664138 4.2788715,1.3729819 4.1735431,1.2979356 4.1344368,1.2979356 c -0.050238,0 -0.1111958,0.066526 -0.2119749,0.2313389 C 3.368721,2.4348538 2.9920996,3.6417918 2.8135019,5.083098 L 2.7453457,5.6331259 2.8848814,5.9239264 C 3.036274,6.2394366 3.1156907,6.3278417 3.1695067,6.240765 Z"
       id="path866"
       inkscape:connector-curvature="0" />
    <path
       style="fill:#fc9c9c;stroke-width:0.03427242;fill-opacity:1"
       d="m 8.0751608,17.033101 c 0.1915859,-0.08793 0.356523,-0.306811 0.3974727,-0.527474 0.018294,-0.09858 0.055277,-0.919517 0.082186,-1.824309 l 0.048926,-1.645077 -0.09293,-0.08983 C 8.3265003,12.76825 6.7026465,11.601553 6.6357189,11.599205 c -0.082593,-0.0029 -0.094071,-0.253216 0.1020373,2.225302 0.1873985,2.368445 0.2398919,2.663041 0.5416122,3.039575 0.1797435,0.224313 0.5185302,0.296268 0.7957924,0.169019 z M 7.4799711,16.353805 C 7.373072,16.241886 7.365824,16.220224 7.3813186,16.058967 c 0.013499,-0.140485 0.037502,-0.192609 0.1244847,-0.270328 0.1972922,-0.176281 0.5231007,-0.1106 0.6364701,0.128308 0.071111,0.149855 0.049642,0.303471 -0.059617,0.426583 -0.1798325,0.202633 -0.415124,0.206644 -0.602685,0.01028 z M 13.52907,13.450007 c 0.894767,-0.279934 1.566948,-1.435671 1.336963,-2.298749 -0.06497,-0.243828 -0.142769,-0.379548 -0.318011,-0.55479 -0.490762,-0.490761 -1.267245,-0.397231 -1.90075,0.228953 -0.559676,0.553207 -0.777238,1.342604 -0.542756,1.969315 0.106043,0.283425 0.272711,0.476511 0.516451,0.598309 0.186345,0.09312 0.24528,0.105598 0.489146,0.103581 0.152501,-0.0013 0.341031,-0.02224 0.418957,-0.04662 z m -0.562453,-0.661635 c -0.246636,-0.114496 -0.376251,-0.44033 -0.318301,-0.800165 0.09027,-0.560527 0.506293,-0.977967 1.012242,-1.015688 0.184506,-0.01376 0.223428,-0.0046 0.363338,0.08561 0.219272,0.14136 0.288939,0.296272 0.288488,0.641486 -4.46e-4,0.341455 -0.104203,0.587638 -0.352181,0.835616 -0.324307,0.324307 -0.65745,0.409183 -0.993586,0.253139 z M 11.691903,12.63354 c 5.51e-4,-0.0047 0.0051,-0.209062 0.01011,-0.454109 0.0078,-0.38164 0.02261,-0.484867 0.10323,-0.719721 0.170066,-0.495398 0.488798,-0.868465 1.012542,-1.185152 0.314623,-0.19024 0.721432,-0.3134074 1.064894,-0.3224125 0.15931,-0.00418 0.29461,-0.022461 0.300667,-0.040631 0.0061,-0.01817 -0.139711,-0.1891831 -0.323927,-0.3800298 l -0.33494,-0.3469935 -0.236747,-0.023657 c -0.934378,-0.093369 -1.701223,0.3166967 -2.108449,1.1274778 -0.448646,0.89325 -0.336237,1.795956 0.28008,2.249201 0.118467,0.08712 0.228284,0.13247 0.232543,0.09603 z M 8.5624358,12.393633 C 8.6203655,12.318407 10.491391,7.7481746 10.490776,7.6834018 10.490468,7.6491897 10.304415,7.4052817 10.077363,7.141384 8.2157541,4.9776809 6.9924722,3.4544433 5.7205945,1.7163121 5.397023,1.2741237 5.2187012,1.0584291 5.1822449,1.065136 5.0635033,1.0869811 4.3462504,2.6794686 3.9968567,3.6970053 3.4852637,5.1869126 3.1422118,6.6774242 3.0144459,7.9654395 l -0.043287,0.4363832 0.1583472,0.1409101 c 0.087091,0.077501 0.3795376,0.3422345 0.6498816,0.5882971 1.3315927,1.2119951 2.7841715,2.2509661 4.3028988,3.0776901 0.2301167,0.125264 0.4248663,0.227754 0.4327768,0.227754 0.00791,0 0.029228,-0.01928 0.047373,-0.04284 z M 7.1061004,5.850726 C 6.8050843,5.5750455 5.6915959,4.4822106 5.3226608,4.1003674 L 5.0335533,3.8011448 5.1120838,3.6034173 C 5.2235912,3.322659 5.4152659,2.943012 5.4455069,2.943012 c 0.014079,0 0.043458,0.028599 0.065288,0.063554 C 5.6644567,3.2526175 6.5411474,4.2975821 7.2826405,5.118503 7.5206035,5.3819563 7.7152016,5.6210065 7.715081,5.6497258 7.7148068,5.7188128 7.4362169,6.0616166 7.3802798,6.0617211 7.3562418,6.0617554 7.2328611,5.9668183 7.1061004,5.850726 Z m 3.5200456,6.450811 c 0.04236,-0.0268 0.04118,-0.06388 -0.0086,-0.26999 -0.156392,-0.647952 0.0093,-1.405212 0.468588,-2.1421835 0.186024,-0.2984634 0.543341,-0.6482358 0.824067,-0.8066676 0.405234,-0.2287003 0.996444,-0.3043138 1.494197,-0.1911024 0.268156,0.060991 0.319706,0.1063957 0.668583,0.5888836 0.204977,0.2834775 0.252771,0.319579 0.317608,0.2399069 0.104392,-0.1282765 0.521888,-0.9064864 0.521888,-0.9727957 0,-0.061219 -0.02393,-0.082066 -0.111385,-0.097012 -0.216855,-0.037061 -3.612489,-0.4296114 -3.71622,-0.4296114 -0.05793,0 -0.120665,0.019278 -0.139407,0.042841 -0.09099,0.1143921 -1.8645928,3.9723511 -1.847122,4.0178791 0.016968,0.04422 0.1287591,0.05189 0.7493083,0.05145 0.4011507,-2.74e-4 0.7514587,-0.01451 0.7784627,-0.0316 z M 0.94534662,9.8554705 C 1.1406018,9.5574731 1.2474001,8.9294875 1.2495469,8.0667395 1.2514045,7.3206408 1.2102759,6.8586054 1.0609389,5.9478801 0.96509199,5.3633625 0.95856858,5.2762557 0.99152357,5.0209628 1.057511,4.5097793 1.2626712,4.132029 1.536595,4.0173541 c 0.2331296,-0.097597 0.6500132,-0.036647 1.0156067,0.1484867 0.091445,0.046307 0.1869359,0.076261 0.2122025,0.066566 0.025266,-0.0097 0.078946,-0.1284592 0.1192876,-0.2639191 C 2.9447478,3.7634746 2.9493908,3.7146097 2.9113958,3.676926 2.774944,3.5415883 1.9435207,3.4459497 1.5858993,3.5244537 1.0749735,3.6366105 0.75324282,3.9751109 0.64010681,4.5195435 c -0.0950936,0.4576099 -0.0541604,1.5735139 0.10678465,2.9111101 0.10471185,0.8702499 0.096979,1.1937932 -0.0375211,1.5698704 -0.0968573,0.2708241 -0.0932978,0.3333757 0.0413387,0.7264366 0.073843,0.2155793 0.11833823,0.2449573 0.19463756,0.1285099 z M 15.117645,8.3323508 C 15.114334,8.1617218 14.486671,6.9242823 13.739969,5.6162611 13.544743,5.2742775 12.871411,4.212391 12.664243,3.9197761 12.325484,3.4412931 12.015602,3.0479174 11.951342,3.0147924 11.843736,2.9593228 5.9667092,0.74482202 5.8474532,0.71480834 5.7909037,0.70057628 5.7176464,0.67779304 5.6846591,0.66417892 c -0.037946,-0.0156607 -0.059977,-0.009336 -0.059977,0.0172194 0,0.0629339 1.2734091,1.96737818 1.7690373,2.64567978 1.0374891,1.419876 1.7563957,2.3289507 2.7174036,3.4362204 0.293958,0.3386983 0.580737,0.6652953 0.637287,0.7257714 l 0.102817,0.1099562 2.08039,0.3795144 c 1.144215,0.2087331 2.104271,0.3795146 2.133459,0.3795146 0.02919,0 0.05284,-0.011567 0.05257,-0.025704 z M 3.1370078,6.203623 C 3.1474297,6.1867603 3.2022968,5.9018152 3.2589351,5.5704118 3.3738197,4.8981935 3.4701392,4.4706467 3.6516433,3.8272443 3.8150525,3.2479851 3.922842,2.9645275 4.2332206,2.2978528 4.37648,1.9901399 4.4936924,1.713117 4.4936924,1.6822464 c 0,-0.07548 -0.2731272,-0.3500384 -0.3482137,-0.3500384 -0.1138718,0 -0.4472352,0.5793175 -0.6902624,1.1995349 -0.2580912,0.658663 -0.485257,1.558227 -0.588524,2.3305249 -0.1062568,0.7946555 -0.1083906,0.7464897 0.046743,1.0550341 0.1406458,0.2797305 0.1892088,0.3419236 0.2235725,0.2863211 z"
       id="path864"
       inkscape:connector-curvature="0" />
    <path
       style="fill:#fc9c9c;stroke-width:0.03427242;fill-opacity:1"
       d="m 8.0066159,17.056073 c 0.2229151,-0.07813 0.3841596,-0.313536 0.4525132,-0.660625 0.049888,-0.253325 0.058199,-0.446879 0.097143,-2.262489 L 8.5805313,13.001969 7.6105,12.290155 C 7.0309352,11.864867 6.6279699,11.590839 6.609419,11.60939 c -0.03253,0.03253 0.2572416,3.864293 0.3204314,4.23719 0.055368,0.326737 0.1664512,0.707863 0.2445159,0.838934 0.2131841,0.357935 0.5017311,0.48641 0.8322496,0.370559 z M 7.5439382,16.449337 C 7.3231734,16.297778 7.2883975,15.976894 7.4727572,15.792535 7.8421639,15.423128 8.4182953,15.924468 8.108146,16.34544 7.963685,16.54152 7.7385913,16.58297 7.5439382,16.449337 Z m 5.9984658,-3.028416 c 0.122959,-0.04192 0.304434,-0.128126 0.403277,-0.191556 0.38004,-0.243882 0.746953,-0.750342 0.881796,-1.217169 0.08117,-0.281008 0.0592,-0.830805 -0.04218,-1.055457 -0.101104,-0.224046 -0.327128,-0.456765 -0.542649,-0.558723 -0.232986,-0.110219 -0.596414,-0.118736 -0.881487,-0.02066 -0.577643,0.198738 -1.110194,0.800351 -1.276652,1.44221 -0.04063,0.156672 -0.0538,0.315327 -0.0444,0.53471 0.01142,0.266271 0.02953,0.344755 0.12373,0.536102 0.134225,0.272649 0.311321,0.439378 0.569171,0.535852 0.251536,0.09411 0.523027,0.09233 0.809392,-0.0053 z m -0.485799,-0.574049 c -0.155387,-0.04316 -0.354605,-0.257221 -0.403604,-0.433677 -0.109938,-0.395912 0.07465,-0.947166 0.403737,-1.205731 0.39297,-0.308756 0.775548,-0.344314 1.055925,-0.09814 0.165296,0.145132 0.217215,0.281777 0.217215,0.571688 0,0.737988 -0.65488,1.337623 -1.273273,1.16586 z m -1.394962,-0.211394 c 0.0028,-0.0058 0.0089,-0.195577 0.01368,-0.421775 0.01365,-0.64775 0.173791,-1.087779 0.537332,-1.476437 0.462519,-0.494475 1.122982,-0.8003933 1.73166,-0.8020843 0.124234,-3.452e-4 0.214203,-0.015476 0.214203,-0.036024 0,-0.038909 -0.52986,-0.6150097 -0.609205,-0.6623687 -0.107462,-0.064143 -0.56351,-0.094029 -0.826502,-0.054164 -0.812174,0.123112 -1.393179,0.6253117 -1.670612,1.444016 -0.241395,0.712356 -0.163074,1.285483 0.235613,1.724152 0.133457,0.14684 0.358009,0.317843 0.373833,0.284685 z M 8.5843664,12.307952 C 8.7222536,12.038822 10.492374,7.690394 10.478626,7.654567 10.469751,7.63144 10.217988,7.3291531 9.9191522,6.9828182 8.2347088,5.0306393 6.8853312,3.3420039 5.5285767,1.4883738 5.2486766,1.1059675 5.2030137,1.0582666 5.154996,1.0981178 5.0812506,1.159321 4.6747077,2.0138145 4.4046304,2.6752766 3.6951017,4.4130242 3.2086667,6.2726267 3.036761,7.9045329 l -0.04937,0.4686672 0.093406,0.099272 c 0.090221,0.095885 0.7585646,0.7036889 1.1871403,1.0796057 0.5326891,0.4672372 1.6505408,1.3037742 2.3660157,1.7705932 0.6718145,0.438331 1.782494,1.07953 1.8699531,1.07953 0.017694,0 0.053901,-0.04241 0.08046,-0.09425 z M 7.1364699,5.8997928 C 7.0118557,5.7918377 6.488341,5.2867479 5.9731044,4.7773709 5.0738224,3.8883165 5.0370183,3.8468157 5.0539814,3.7409607 5.0791843,3.5836876 5.3869017,2.943012 5.4372373,2.943012 c 0.023166,0 0.1087351,0.08868 0.1901533,0.1970664 C 5.8977863,3.5000368 6.5572128,4.292038 6.8758192,4.639497 7.5293241,5.3521828 7.7538133,5.6243213 7.7329842,5.678601 7.7028591,5.7571061 7.4290159,6.0925642 7.3935131,6.0944537 7.3767539,6.0953447 7.2610844,6.0077482 7.1364699,5.8997928 Z m 3.5055071,6.3711692 c 0.0097,-0.01563 -0.0072,-0.104311 -0.03751,-0.197066 -0.08678,-0.265716 -0.07733,-0.855779 0.01915,-1.196196 0.1574,-0.555334 0.500368,-1.1631848 0.834134,-1.4783561 0.41036,-0.3874984 0.876104,-0.5715201 1.449823,-0.5728437 0.310558,-7.163e-4 0.701218,0.076215 0.798966,0.1573389 0.02747,0.022801 0.173443,0.2087283 0.324375,0.4131716 0.32586,0.441386 0.276995,0.455134 0.638816,-0.1797294 0.238192,-0.4179413 0.269908,-0.4956903 0.215833,-0.5291104 -0.05959,-0.036831 -3.888662,-0.4722233 -3.914012,-0.4450507 -0.05678,0.06086 -1.8805532,4.0020318 -1.8641902,4.0285078 0.022677,0.03669 1.5119262,0.03605 1.5346162,-6.65e-4 z M 0.99072776,9.7375202 C 1.1823092,9.290749 1.2535839,8.6965896 1.2280054,7.7595311 1.210096,7.1034291 1.1312238,6.355068 1.0159272,5.7472736 0.84101964,4.8252351 1.149224,4.0322238 1.7125972,3.9547402 c 0.203217,-0.027949 0.5052715,0.040905 0.8170526,0.1862514 0.1576771,0.073506 0.2206705,0.088631 0.2449782,0.058821 0.03655,-0.044824 0.1425329,-0.3863952 0.1425329,-0.4593676 0,-0.1209448 -0.6610431,-0.268271 -1.0657823,-0.2375303 -0.8458962,0.064248 -1.26521247,0.6106095 -1.26447082,1.6475831 3.4272e-4,0.4640641 0.0810101,1.575731 0.15319157,2.11084 0.13564786,1.0056064 0.12877932,1.3965839 -0.0312112,1.7767052 l -0.0856917,0.2035939 0.0655638,0.2365953 c 0.13421359,0.4843246 0.1862926,0.5290428 0.30196751,0.259288 z M 15.118144,8.3155714 c 0,-0.060738 -0.594985,-1.2687371 -0.84842,-1.7225462 C 13.385263,5.0092749 12.784655,4.0601789 12.178895,3.2890454 L 11.979576,3.0353114 9.1362854,1.9615523 C 6.1086293,0.81816826 5.6246824,0.639265 5.6246824,0.66339859 c 0,0.0232906 0.3352296,0.54047741 0.8666938,1.33712171 0.4636164,0.6949427 1.2712502,1.8183845 1.8751002,2.6083183 0.9065659,1.1859349 2.4128386,2.9466849 2.5484566,2.9790058 0.04036,0.00962 0.960183,0.1792157 2.044048,0.3768812 1.083866,0.1976655 2.013077,0.3682534 2.064914,0.3790839 0.06728,0.014056 0.09425,0.00597 0.09425,-0.028238 z M 3.1340772,6.173747 C 3.1428872,6.159302 3.1683572,6.024103 3.1906762,5.8733043 3.3256244,4.9615529 3.5937554,3.8536629 3.8500967,3.1486465 3.9083533,2.9884229 4.063348,2.6259921 4.1945294,2.3432445 4.5377373,1.6034957 4.5234511,1.6903635 4.3336021,1.4976163 4.2439955,1.4066417 4.1514199,1.332208 4.1278781,1.332208 c -0.048719,0 -0.3285735,0.4599024 -0.4833933,0.7943913 C 3.2891935,2.8942082 2.9956646,3.968791 2.8663157,4.9754086 2.7899776,5.5694865 2.7956363,5.6493697 2.9334437,5.9230185 3.0523012,6.159038 3.1037982,6.2233927 3.1340772,6.173747 Z"
       id="path862"
       inkscape:connector-curvature="0" />
    <path
       style="fill:#fc9c9c;stroke-width:0.03427242;fill-opacity:1"
       d="m 7.9734227,17.061121 c 0.1140604,-0.03318 0.3245088,-0.220634 0.3245088,-0.289056 0,-0.02373 0.02157,-0.06105 0.047934,-0.08293 0.026364,-0.02188 0.056112,-0.09702 0.066107,-0.16699 0.01,-0.06996 0.033845,-0.212033 0.052999,-0.315708 0.019155,-0.103674 0.050937,-0.859112 0.070629,-1.678751 0.033595,-1.39838 0.032127,-1.493801 -0.02382,-1.547813 C 8.37499,12.847816 6.667157,11.615471 6.6357189,11.626139 c -0.01885,0.0064 -0.030194,0.07953 -0.025208,0.162508 0.033307,0.554412 0.2880608,3.697857 0.3177565,3.920843 0.1370513,1.029126 0.5073851,1.508054 1.0451553,1.351631 z M 7.6374779,16.512894 c -0.091593,-0.02543 -0.1552812,-0.07525 -0.2186738,-0.171045 -0.2653745,-0.401008 0.1868724,-0.865271 0.5984424,-0.614344 0.2236317,0.136345 0.2627784,0.419048 0.090389,0.65276 -0.1260554,0.170895 -0.2284004,0.199766 -0.4701576,0.132629 z M 13.33279,13.462506 c 0.633263,-0.0887 1.301965,-0.762224 1.495059,-1.505846 0.128186,-0.493656 0.01033,-1.033961 -0.291345,-1.335634 -0.215375,-0.215375 -0.417117,-0.292747 -0.754985,-0.289551 -0.357106,0.0034 -0.57155,0.08018 -0.898144,0.321682 -0.85295,0.630713 -1.109758,1.873441 -0.5179,2.506186 0.239943,0.256518 0.567468,0.359167 0.967315,0.303163 z m -0.432047,-0.669901 c -0.413681,-0.306499 -0.390692,-1.021953 0.04791,-1.490848 0.306512,-0.327687 0.738974,-0.457535 1.029757,-0.309188 0.499537,0.254844 0.511916,1.02357 0.02487,1.544263 -0.08802,0.0941 -0.239469,0.211273 -0.336553,0.260383 -0.151288,0.07653 -0.211783,0.08766 -0.423253,0.0779 -0.183287,-0.0085 -0.271421,-0.02968 -0.342725,-0.08251 z m -1.243068,-0.193337 c 5.76e-4,-0.0047 0.0052,-0.201351 0.01023,-0.436974 0.0078,-0.363871 0.02345,-0.469707 0.103933,-0.702584 0.169602,-0.490765 0.438651,-0.820352 0.94724,-1.160374 0.336127,-0.224721 0.992248,-0.4252446 1.28466,-0.3926176 0.0529,0.0059 0.101506,-0.00469 0.108011,-0.02354 0.0065,-0.01885 -0.12297,-0.1759172 -0.287721,-0.3490386 -0.29736,-0.3124675 -0.301021,-0.3149406 -0.501322,-0.3386934 -1.115309,-0.1322577 -1.980321,0.465037 -2.302194,1.5896756 -0.07802,0.272615 -0.08942,0.368241 -0.07795,0.653879 0.01172,0.291694 0.02748,0.363098 0.123054,0.557229 0.07016,0.142519 0.183001,0.292659 0.3135,0.417134 0.169477,0.161654 0.273082,0.230796 0.278563,0.185904 z M 8.5255042,12.374105 C 8.5732652,12.342635 10.457423,7.765721 10.455862,7.6849642 10.455183,7.6498926 10.420483,7.5809677 10.378749,7.5317973 10.337015,7.482627 10.116746,7.2281543 9.8892626,6.9663023 9.3050404,6.293815 8.7131337,5.5887561 8.1085095,4.8451316 7.0521138,3.5458746 6.4372113,2.752499 5.6817888,1.7140643 5.4398749,1.3815194 5.2195895,1.1043519 5.1922659,1.0981364 5.1580346,1.0903496 5.0639766,1.2502076 4.8897846,1.6122228 3.9965959,3.4684986 3.3422856,5.6387322 3.0903213,7.5807308 2.9848057,8.3939826 2.9759024,8.3418347 3.2684532,8.6240667 4.6397793,9.9470255 6.2903794,11.17721 7.8866624,12.065996 c 0.6175333,0.343833 0.598533,0.33467 0.6388418,0.308109 z M 6.6281673,5.4387032 C 6.015059,4.8596566 5.0829159,3.9279428 5.0283007,3.8395731 4.9872321,3.7731227 5.32841,2.9818931 5.4234635,2.9231468 5.4474549,2.9083191 5.492567,2.9384281 5.5352602,2.9977631 5.7419424,3.285011 6.406179,4.0877552 6.8346107,4.5680572 7.102217,4.8680622 7.4175586,5.2217615 7.5353701,5.3540558 7.6531815,5.4863501 7.7494583,5.6187449 7.7493181,5.6482664 7.7488725,5.7418703 7.4396136,6.1008756 7.3693644,6.0893364 7.3345491,6.0836177 7.0010105,5.7908329 6.6281673,5.4387032 Z m 3.9854517,6.8156408 c 0.0095,-0.02477 -0.0064,-0.135971 -0.03535,-0.247108 -0.149154,-0.57264 0.01276,-1.348847 0.424152,-2.0333351 0.277258,-0.4613144 0.568939,-0.7472098 0.979794,-0.9603596 0.411478,-0.2134733 1.029656,-0.2646479 1.515541,-0.1254614 0.212907,0.060989 0.213578,0.061589 0.50766,0.4531133 0.16196,0.2156236 0.310733,0.3866225 0.330608,0.3799976 0.0614,-0.020468 0.545367,-0.8960735 0.534922,-0.9678002 -0.0092,-0.063232 -0.134099,-0.082291 -1.922983,-0.2934449 -1.372359,-0.161989 -1.926047,-0.2155708 -1.958813,-0.1895598 -0.06771,0.053747 -1.8724056,3.9355891 -1.8530897,3.9859251 0.02456,0.064 1.4529717,0.0621 1.4775567,-0.002 z M 0.95651052,9.7758704 C 1.1425759,9.4074984 1.2183368,8.8947774 1.2166516,8.0153309 1.2152087,7.2626889 1.1595715,6.6672155 1.0120305,5.8253466 0.93417175,5.3810858 0.92924852,5.3013661 0.96268846,5.0263419 1.0223999,4.5352458 1.1679093,4.2261548 1.4233801,4.0477415 c 0.1208963,-0.08443 0.1632492,-0.093676 0.4284053,-0.09352 0.2647874,1.542e-4 0.3235523,0.013022 0.5869715,0.1285216 0.1609992,0.070592 0.3029295,0.1283489 0.3154009,0.1283489 0.012471,0 0.054244,-0.1041025 0.092828,-0.2313389 L 2.9171393,3.748414 2.8473507,3.6904959 C 2.7232269,3.5874844 2.3002048,3.5168034 1.8961888,3.5315701 1.4613618,3.5474629 1.2280979,3.635263 1.0021538,3.8680829 0.52693892,4.3577595 0.48230594,5.0661191 0.77755157,7.4326997 0.89722642,8.3919698 0.88500762,8.6805525 0.70838262,9.0663524 L 0.6250194,9.2484418 0.7259983,9.5471774 c 0.0555385,0.1643044 0.11505425,0.3128106 0.13225763,0.3300139 0.018856,0.018856 0.0578779,-0.021383 0.0982546,-0.1013209 z M 15.086037,8.2437964 C 14.953425,7.8950007 13.859947,5.8392111 13.524381,5.3078093 13.48272,5.2418349 13.342445,5.0182073 13.212658,4.8108591 12.821409,4.1857945 12.473247,3.6841179 12.176452,3.317759 L 11.947945,3.0356946 8.8291541,1.8594408 C 7.1138193,1.2125012 5.6984003,0.6827021 5.683779,0.68210946 c -0.048574,-0.001969 0.071453,0.1909622 0.7386167,1.18725594 1.3616774,2.0334292 2.5507776,3.5664312 4.3472313,5.6045009 0.07841,0.088955 0.162764,0.1073831 2.157208,0.4712459 1.141584,0.2082687 2.101259,0.3786705 2.13261,0.3786705 0.04556,0 0.0509,-0.016058 0.02659,-0.079986 z M 3.1367779,6.1217794 C 3.1432852,6.0982171 3.1832838,5.8638777 3.2256638,5.601025 3.3237511,4.9926569 3.4667158,4.3544975 3.6367563,3.7660096 3.808307,3.172296 3.8821243,2.9796121 4.1992083,2.2978528 4.3423248,1.9901399 4.45942,1.7097101 4.45942,1.6746756 4.45942,1.5983301 4.1700349,1.3517378 4.1085115,1.3756577 4.0447,1.4004671 3.7527102,1.9072924 3.601878,2.2550535 3.2305579,3.1111752 2.9628546,4.1749394 2.8471039,5.2542754 L 2.806902,5.6291469 2.9374385,5.8968834 c 0.1265681,0.2595975 0.1747451,0.3139508 0.1993394,0.224896 z"
       id="path860"
       inkscape:connector-curvature="0" />
    <path
       style="fill:#fc9c9c;stroke-width:0.03427242;fill-opacity:1"
       d="m 7.9209348,17.07406 c 0.099853,-0.01982 0.304833,-0.167134 0.3323538,-0.238852 0.010432,-0.02719 -0.00996,-0.07206 -0.045307,-0.09972 -0.060063,-0.04699 -0.058155,-0.0489 0.029114,-0.02913 0.0776,0.01758 0.1002595,0.0061 0.134023,-0.06802 0.030651,-0.06727 0.031042,-0.110231 0.00159,-0.174861 -0.031301,-0.0687 -0.029731,-0.08568 0.00792,-0.08568 0.098946,0 0.1002136,-0.01869 0.1407894,-2.076214 L 8.546482,13.030777 8.3965021,12.909503 C 8.1003592,12.67004 6.6886876,11.648208 6.6540101,11.648208 c -0.047042,0 -0.055615,-0.148785 0.1191001,2.067131 0.1720284,2.181847 0.2186838,2.504676 0.4190503,2.899601 0.1908416,0.376149 0.4198753,0.520438 0.7287743,0.45912 z M 7.719074,16.698843 c 0.054406,-0.06555 0.099044,-0.05836 0.099044,0.01597 0,0.08727 -0.036574,0.115011 -0.091518,0.06941 -0.035065,-0.0291 -0.036905,-0.04998 -0.00753,-0.08538 z m -0.4150428,-0.02375 c 0,-0.02499 0.038301,-0.08142 0.085114,-0.125394 l 0.085114,-0.07996 -0.07369,-0.119232 c -0.095566,-0.154629 -0.098187,-0.387338 -0.00579,-0.513806 0.037345,-0.05112 0.1254107,-0.121517 0.1957007,-0.156449 0.1682221,-0.0836 0.332811,-0.05234 0.4918556,0.09341 0.1003767,0.09199 0.1243708,0.140979 0.1374674,0.280676 0.013261,0.141453 0.00129,0.190586 -0.072957,0.29928 -0.048852,0.07152 -0.088822,0.153403 -0.088822,0.181953 0,0.02889 -0.016646,0.04162 -0.03754,0.02871 -0.020647,-0.01276 -0.074938,-0.0032 -0.1206461,0.02128 -0.063847,0.03417 -0.092476,0.03511 -0.1235401,0.004 -0.068675,-0.06867 -0.163815,-0.04855 -0.163815,0.03466 0,0.07086 -0.00257,0.07158 -0.045554,0.0128 -0.03775,-0.05163 -0.058299,-0.05548 -0.1199534,-0.02248 -0.04092,0.0219 -0.0744,0.0547 -0.0744,0.07288 0,0.01819 -0.015423,0.03307 -0.034273,0.03307 -0.01885,0 -0.034272,-0.02045 -0.034272,-0.04544 z m 0.8568106,-0.263017 c 0,-0.01885 0.024044,-0.03427 0.053431,-0.03427 0.029387,0 0.0439,0.01542 0.03225,0.03427 -0.01165,0.01885 -0.035694,0.03427 -0.053431,0.03427 -0.017737,0 -0.03225,-0.01542 -0.03225,-0.03427 z m 5.2910542,-2.983564 c 0.552731,-0.138009 1.131728,-0.739402 1.334549,-1.38617 0.276883,-0.88294 -0.184645,-1.699616 -0.963259,-1.704491 -0.567302,-0.0036 -1.131092,0.356958 -1.486457,0.950497 -0.202646,0.338466 -0.251695,0.528812 -0.251695,0.976765 0,0.352702 0.0093,0.413947 0.08877,0.582631 0.192381,0.408507 0.454764,0.586952 0.887993,0.603922 0.141373,0.0055 0.316917,-0.0049 0.390097,-0.02315 z m -0.561028,-0.627823 c -0.355534,-0.235281 -0.400214,-0.855812 -0.09603,-1.333746 0.296579,-0.465988 0.900984,-0.683062 1.247513,-0.448049 0.236692,0.160523 0.315283,0.325702 0.319195,0.67087 0.0058,0.515457 -0.352282,1.022423 -0.833513,1.179934 -0.200568,0.06565 -0.479301,0.03546 -0.637162,-0.06901 z m -1.226334,-0.681234 c 0.01354,-0.388092 0.02969,-0.491321 0.111082,-0.710069 0.117619,-0.316114 0.219709,-0.484054 0.4247,-0.698646 0.446849,-0.467777 1.029592,-0.7578916 1.606908,-0.7999884 0.155511,-0.011339 0.282747,-0.035895 0.282747,-0.054568 0,-0.018672 -0.127236,-0.1632536 -0.282747,-0.3212916 -0.277132,-0.2816347 -0.287172,-0.288069 -0.505519,-0.323955 -0.425687,-0.069964 -0.96273,0.035981 -1.341467,0.2646366 -0.546332,0.3298385 -0.950311,1.0449804 -1.012908,1.7930934 -0.02099,0.250841 0.04226,0.55818 0.163968,0.796746 0.08384,0.164347 0.413823,0.508151 0.487717,0.508151 0.04009,0 0.05273,-0.08764 0.06552,-0.454109 z M 8.5692468,12.290816 C 8.5855882,12.248404 9.0187361,11.196445 9.5317978,9.9531291 10.311526,8.0635937 10.458177,7.6822115 10.42528,7.6295344 10.403634,7.5948733 10.099432,7.2318094 9.7492755,6.8227266 8.7690536,5.6775447 8.6343191,5.5181878 8.3801792,5.2034323 8.2501187,5.0423509 7.8892329,4.5951989 7.5782106,4.2097613 6.9263141,3.4018914 6.2559788,2.5282275 5.6395919,1.6831144 5.3905445,1.3416514 5.1926799,1.1010696 5.1716058,1.1140941 5.1515249,1.1265048 5.0236466,1.3695843 4.8874318,1.6542708 3.9253394,3.665027 3.2580577,5.9805647 3.0543284,8.0153309 l -0.036031,0.3598604 0.232513,0.2227708 c 1.0110297,0.9686669 2.3729747,2.0438849 3.524545,2.7825309 0.6800026,0.43617 1.6443995,0.987436 1.7274443,0.987436 0.020204,0 0.050105,-0.0347 0.066447,-0.07711 z M 7.1706364,5.9681807 C 7.0649303,5.8789887 6.5337009,5.3661876 5.9901265,4.8286225 4.8476899,3.6988149 4.9300496,3.8626476 5.2081467,3.2730819 5.4061323,2.8533528 5.4493327,2.8303618 5.6075462,3.060524 5.7728243,3.3009634 6.5377683,4.2272087 6.9103651,4.6380637 7.7538218,5.5681272 7.7884527,5.611915 7.7458792,5.694501 7.6788968,5.8244353 7.4345924,6.1303475 7.3978074,6.1303475 c -0.019237,0 -0.1214645,-0.072975 -0.227171,-0.1621668 z m 3.4322396,6.2768143 c 0.01106,-0.01106 -0.0046,-0.09974 -0.03488,-0.197066 -0.0766,-0.246457 -0.07277,-0.793526 0.0077,-1.102306 0.274738,-1.0540712 0.945513,-1.8532037 1.740444,-2.0734904 0.465201,-0.1289137 1.2286,-0.068886 1.422866,0.1118837 0.0426,0.039638 0.181401,0.2154395 0.308452,0.3906697 0.127051,0.1752301 0.249755,0.3189134 0.272675,0.319297 0.06331,0.00106 0.595474,-0.932975 0.554755,-0.973694 -0.01046,-0.010461 -0.879498,-0.1208367 -1.931195,-0.2452802 -1.597644,-0.1890433 -1.919388,-0.21868 -1.956022,-0.1801753 -0.05619,0.059056 -1.8329389,3.8630885 -1.8329389,3.9243285 0,0.03695 0.1398809,0.04595 0.7140088,0.04595 0.3927051,0 0.7230611,-0.0091 0.7341251,-0.02012 z M 0.96432223,9.7182389 C 1.1528206,9.2921072 1.2177531,8.7456307 1.1943464,7.7823394 1.1769257,7.0653969 1.1060428,6.3852991 0.98019516,5.7276314 0.82586986,4.9211423 1.0717348,4.1492817 1.5415031,3.965479 1.7747242,3.874228 2.2075568,3.942731 2.5818131,4.1301231 2.7325257,4.2055861 2.7454502,4.2069991 2.7736105,4.1510881 2.8287647,4.041583 2.8914099,3.7686459 2.8726252,3.7196937 2.8385262,3.6308331 2.3830125,3.5425413 1.9746692,3.5456437 1.67388,3.547929 1.5590191,3.5635723 1.4064547,3.6230308 1.0466933,3.7632398 0.8308637,4.0165605 0.68013734,4.4755138 0.61143313,4.6847143 0.60435896,4.76993 0.60962114,5.3249455 c 0.003218,0.339297 0.0229091,0.755707 0.0437604,0.9253555 0.24119184,1.9623685 0.25683378,2.2551235 0.14008373,2.6218405 -0.0390075,0.1225239 -0.0908456,0.2581598 -0.11519613,0.3014133 -0.0383618,0.068141 -0.0302739,0.1196214 0.0605683,0.3855291 0.057663,0.1687873 0.11727578,0.3069024 0.1324732,0.3069219 0.0151974,1.99e-5 0.0570526,-0.066475 0.0930116,-0.1477669 z M 14.900002,7.8868093 C 13.965095,5.9990444 13.050824,4.4674755 12.194319,3.3543051 L 11.970191,3.0630136 8.8745496,1.8931132 C 5.3584803,0.56432523 5.6303031,0.6655039 5.6785909,0.70350326 c 0.020225,0.0159155 0.046695,0.0558353 0.058823,0.0887106 0.04383,0.1188119 1.3267058,2.01210274 1.8056999,2.66488454 0.627206,0.8547679 1.0816374,1.4579907 1.2151251,1.612985 0.057853,0.067174 0.2517021,0.3051463 0.4307756,0.5288266 0.1790734,0.2236807 0.5407163,0.6545317 0.8036513,0.9574468 0.2629352,0.3029152 0.5611662,0.6465339 0.6627352,0.7635972 0.10157,0.1170636 0.210316,0.2206308 0.241658,0.23015 0.054,0.0164 4.16764,0.7736787 4.20273,0.7736787 0.0091,0 -0.08076,-0.196638 -0.199787,-0.4369734 z M 3.1368735,6.0189621 C 3.2676259,5.1714476 3.4356434,4.3994485 3.638494,3.7141415 3.8108123,3.1319843 3.8870715,2.9347029 4.1992083,2.2635804 4.3423248,1.9558674 4.45942,1.6930389 4.45942,1.6795168 4.45942,1.6659949 4.3907487,1.5875355 4.3068169,1.5051627 4.1191102,1.3209425 4.1151192,1.3233467 3.8604446,1.7740635 3.3937515,2.6000062 3.0510194,3.7644798 2.8836239,5.0929287 l -0.063785,0.5061962 0.1226103,0.2656113 c 0.067436,0.1460862 0.1349021,0.2656113 0.149925,0.2656113 0.015023,0 0.035048,-0.050123 0.044499,-0.1113854 z"
       id="path858"
       inkscape:connector-curvature="0" />
    <path
       style="fill:#fc9c9c;stroke-width:0.03427242;fill-opacity:1"
       d="m 7.8573955,17.069963 c 0.082167,-0.0069 0.170191,-0.04957 0.2570432,-0.124744 0.1306698,-0.113095 0.1313929,-0.115085 0.067527,-0.185834 -0.035506,-0.03933 -0.081774,-0.06079 -0.1028172,-0.04768 -0.021043,0.01311 -0.071452,0.01955 -0.1120195,0.01431 -0.044328,-0.0057 -0.094216,0.01968 -0.1250268,0.06367 l -0.051267,0.07319 -0.1325321,-0.08366 c -0.1111969,-0.0702 -0.1395635,-0.07614 -0.1762086,-0.03691 -0.024022,0.02572 -0.077769,0.04739 -0.1194377,0.04816 -0.066522,0.0012 -0.058013,0.01746 0.069776,0.133071 0.153975,0.1393 0.223425,0.163228 0.424963,0.146415 z M 8.343628,16.663406 c 0.012567,-0.01257 0.022848,-0.06698 0.022848,-0.120914 0,-0.09279 -0.00692,-0.09736 -0.1285216,-0.08505 -0.1000854,0.01013 -0.1309433,0.02929 -0.1394662,0.08659 -0.00792,0.05325 0.013997,0.08305 0.079344,0.107899 0.1061304,0.04035 0.1349302,0.04234 0.1657953,0.01148 z m -0.6111915,-0.01142 c 0.027949,-0.04522 -0.013031,-0.1094 -0.053777,-0.08422 -0.041628,0.02573 -0.041357,0.118489 3.461e-4,0.118489 0.017737,0 0.041781,-0.01542 0.053431,-0.03427 z m -0.4512537,-0.02285 c 0.012567,-0.01257 0.022848,-0.04557 0.022848,-0.07334 0,-0.02777 0.02587,-0.0694 0.057488,-0.09252 0.053803,-0.03934 0.053803,-0.0498 0,-0.163183 -0.072706,-0.153218 -0.072778,-0.273843 -2.399e-4,-0.426675 0.197571,-0.41635 0.8622356,-0.275455 0.8797773,0.186494 0.0027,0.07117 -0.00757,0.164093 -0.022817,0.206505 -0.02537,0.07055 -0.017535,0.07711 0.092067,0.07711 0.1192753,0 0.1198788,-7.85e-4 0.1386426,-0.17993 0.041658,-0.397731 0.092149,-3.120686 0.05849,-3.154345 -0.1121119,-0.112112 -1.8413007,-1.351737 -1.8590929,-1.332751 -0.011913,0.01271 0.029534,0.66315 0.092103,1.445418 0.2275449,2.844841 0.2359139,2.915892 0.392885,3.335435 0.070146,0.187482 0.098832,0.220807 0.1478625,0.171777 z M 13.364208,13.42982 c 0.534077,-0.111746 1.025513,-0.5379 1.307218,-1.133564 0.208176,-0.440188 0.231511,-0.987988 0.05726,-1.344148 -0.327267,-0.66891 -1.089558,-0.794847 -1.798325,-0.297099 -0.862145,0.605461 -1.129907,1.840256 -0.540522,2.492635 0.213912,0.236775 0.623899,0.355507 0.974371,0.282176 z m -0.360155,-0.549983 c -0.258164,-0.09754 -0.420163,-0.374672 -0.421316,-0.720743 -0.0018,-0.534863 0.321695,-1.012692 0.808985,-1.195011 0.318003,-0.11898 0.567207,-0.07382 0.79173,0.143483 0.397593,0.384804 0.202758,1.231188 -0.378731,1.645245 -0.213706,0.152172 -0.580216,0.210318 -0.800668,0.127026 z m -1.379275,-0.33077 c 0.0013,-0.0148 3.9e-4,-0.144985 -0.0021,-0.289299 -0.01136,-0.660156 0.242206,-1.289357 0.674809,-1.674509 0.259477,-0.231016 0.635185,-0.462923 0.907857,-0.560377 0.275315,-0.098399 0.684844,-0.1724755 0.78238,-0.1415186 0.134221,0.0426 0.0845,-0.047115 -0.183632,-0.331376 -0.2758,-0.2923944 -0.282371,-0.2967803 -0.481392,-0.3213183 -0.748679,-0.092308 -1.469837,0.1852332 -1.861066,0.7162402 -0.208046,0.2823777 -0.301536,0.4744147 -0.405331,0.8325897 -0.138982,0.479598 -0.118867,0.910846 0.05872,1.258949 0.108037,0.21177 0.501206,0.605607 0.509751,0.510617 z M 8.5725523,12.224358 C 8.79082,11.764482 10.446449,7.6833562 10.427895,7.6509372 10.41568,7.6295941 10.143502,7.306972 9.8230544,6.9339992 8.0772603,4.9020457 6.6660908,3.1328072 5.4263009,1.4216166 5.2982441,1.2448692 5.1954199,1.1336487 5.1729252,1.1475512 5.063431,1.2152223 4.358997,2.8405816 4.0489604,3.7409052 3.5274407,5.2553591 3.1573119,6.885709 3.0663463,8.0691382 c -0.026579,0.3457814 -0.077352,0.2733542 0.6562165,0.9360896 0.6846812,0.618569 0.8600679,0.7659456 1.4566408,1.2240092 1.1142767,0.85557 1.87069,1.349795 3.0581826,1.998155 l 0.265043,0.144711 z M 7.0679987,5.8991019 C 6.7228854,5.5932355 5.0444986,3.9360311 5.0042967,3.8614452 4.948481,3.7578911 5.3351239,2.8744671 5.4362615,2.8744671 c 0.023648,0 0.1103682,0.08868 0.1927125,0.1970665 0.2860421,0.3765049 0.9352989,1.1587815 1.2613949,1.5198292 0.7938518,0.8789382 0.8934763,0.9958411 0.8934763,1.0484394 0,0.1030644 -0.3200973,0.4905453 -0.4052386,0.4905453 -0.02733,0 -0.1671031,-0.1040603 -0.3106079,-0.2312456 z m 3.5115233,6.3205111 c 0.0096,-0.02502 -1.71e-4,-0.09057 -0.02175,-0.145658 -0.02157,-0.05509 -0.04659,-0.262096 -0.05561,-0.460019 -0.02162,-0.474454 0.0799,-0.886811 0.350186,-1.422306 0.308944,-0.6120885 0.632653,-0.9610089 1.120435,-1.207699 0.433804,-0.2193922 1.073429,-0.269967 1.551694,-0.1226915 0.201738,0.062122 0.211103,0.070649 0.494164,0.4499441 0.237491,0.3182332 0.29645,0.3787004 0.33331,0.3418404 0.07409,-0.074088 0.492015,-0.8243697 0.492015,-0.8832882 0,-0.046741 -0.276055,-0.08744 -1.893552,-0.2791674 C 11.90896,8.3671219 11.041145,8.271666 11.021936,8.2784444 10.989414,8.2899212 9.1540419,12.18292 9.1545231,12.239407 c 1.371e-4,0.01414 0.3168661,0.02571 0.7038792,0.02571 0.5532357,0 0.7073927,-0.0097 0.7211197,-0.0455 z M 0.96482364,9.6828331 C 1.2665697,9.0006857 1.2714391,7.4523597 0.97701262,5.8070283 0.90019133,5.3777305 0.89529585,5.2987367 0.92855964,5.0251598 1.0563416,3.9742197 1.6601378,3.641834 2.584658,4.113489 2.6589209,4.1513751 2.7315137,4.1695563 2.7459749,4.1538917 2.7856137,4.1109542 2.8815779,3.7568844 2.8621128,3.725389 2.8348176,3.6812245 2.5100521,3.5971908 2.2296403,3.5617355 1.7027175,3.4951114 1.2773635,3.6205288 0.99963551,3.9244076 0.84714858,4.0912523 0.68945327,4.4021547 0.68945327,4.5359429 c 0,0.026455 -0.0132675,0.0563 -0.0294832,0.066322 -0.0515001,0.031829 -0.0724348,0.5693685 -0.040825,1.0482688 0.0319782,0.484488 0.0941114,1.0660218 0.20805966,1.9473334 0.0373357,0.2887654 0.0676154,0.6126399 0.0672881,0.719721 -7.3e-4,0.238533 -0.0735685,0.5898616 -0.16343731,0.7883127 l -0.0670574,0.1480785 0.0833683,0.2631906 c 0.0458524,0.1447551 0.097503,0.2774977 0.1147787,0.2949838 0.0191548,0.019388 0.0592179,-0.03107 0.10267852,-0.1293206 z M 15.076869,8.248758 C 15.046592,8.2025495 14.866689,7.8573741 14.677084,7.4817013 14.245491,6.6265646 13.745592,5.7112574 13.489805,5.3078093 13.447977,5.2418349 13.307566,5.0182073 13.177781,4.8108591 12.880773,4.3363506 12.32677,3.5370719 12.11165,3.2727173 L 11.947665,3.0712 8.8672757,1.9090587 C 7.1730615,1.269881 5.7723352,0.75176782 5.7545506,0.75769606 c -0.029195,0.009732 1.2238796,1.92026784 1.469752,2.24090034 0.056058,0.073103 0.1638229,0.2177382 0.2394785,0.3214123 0.3609192,0.4945837 1.2641285,1.6884598 1.4411085,1.9048792 0.7344701,0.8981455 0.8937909,1.0899076 1.1154924,1.3426308 0.136518,0.1556201 0.371595,0.4285595 0.522393,0.6065325 0.200074,0.2361274 0.306601,0.3336763 0.394133,0.3609163 0.06597,0.020531 1.006753,0.1990615 2.090618,0.3967339 1.083866,0.1976727 2.000753,0.3687798 2.037528,0.3802385 0.06353,0.019793 0.06411,0.016637 0.01182,-0.063182 z M 3.1856308,5.6216954 C 3.3224902,4.7779227 3.5810263,3.7450817 3.8089623,3.1315103 3.8789877,2.943012 4.0462762,2.5536362 4.1807142,2.2662309 4.3151526,1.9788255 4.4251475,1.7236271 4.4251475,1.6991233 c 0,-0.05141 -0.2431974,-0.2983704 -0.2938243,-0.2983704 -0.061341,0 -0.3948053,0.6071434 -0.5689164,1.0358334 -0.3491144,0.8595775 -0.5987266,1.9127929 -0.6998111,2.9527845 -0.021429,0.2204745 -0.01552,0.2510791 0.09099,0.4712459 0.062649,0.1295021 0.1231761,0.2354584 0.1345045,0.2354584 0.011328,0 0.055222,-0.213471 0.097541,-0.4743797 z"
       id="path856"
       inkscape:connector-curvature="0" />
    <path
       style="fill:#fc9c9c;stroke-width:0.03427242;fill-opacity:1"
       d="m 7.9723435,17.027935 c 0.01885,-0.01754 0.079156,-0.06822 0.1340134,-0.112626 0.054858,-0.04441 0.089276,-0.09767 0.076485,-0.118367 -0.030664,-0.04962 -0.2674007,-0.014 -0.317094,0.0477 -0.041465,0.05149 -0.1504477,0.06487 -0.1504477,0.01848 0,-0.01582 -0.037957,-0.04607 -0.084349,-0.0672 -0.06474,-0.0295 -0.1050121,-0.02771 -0.173229,0.0077 l -0.088879,0.04611 0.092169,0.0725 c 0.050693,0.03988 0.1064227,0.0725 0.123843,0.0725 0.01742,0 0.022141,0.01542 0.010491,0.03427 -0.027204,0.04402 0.3296281,0.04303 0.3769967,-10e-4 z m 0.369782,-0.444464 c 0.022471,-0.08593 -0.016446,-0.111121 -0.1282989,-0.08305 -0.103114,0.02588 -0.1075832,0.04289 -0.027281,0.10385 0.085357,0.0648 0.1349285,0.05817 0.1555799,-0.0208 z m -1.0723667,-0.02102 c 0,-0.03261 0.023423,-0.08518 0.052052,-0.116818 0.04649,-0.05137 0.046512,-0.06814 2.056e-4,-0.156924 -0.071738,-0.13756 -0.065259,-0.248038 0.02485,-0.423766 0.1770962,-0.345369 0.6205903,-0.364068 0.842044,-0.0355 0.066234,0.09827 0.078238,0.152478 0.066408,0.299884 -0.013593,0.169364 -0.00979,0.17993 0.064839,0.17993 0.054323,0 0.084639,-0.02427 0.096306,-0.07711 0.017147,-0.07763 0.087102,-2.433643 0.087102,-2.933299 V 13.030534 L 7.630475,12.390032 C 7.1502752,12.037757 6.732483,11.739975 6.7020481,11.728296 c -0.048184,-0.01849 -0.052644,0.0026 -0.034509,0.163542 0.011455,0.101626 0.082728,0.979039 0.1583863,1.949805 0.1396265,1.791553 0.1944586,2.239648 0.3134089,2.561212 0.069035,0.186625 0.1304248,0.261747 0.1304248,0.159599 z m 6.1431902,-3.16923 c 0.321593,-0.07581 0.714576,-0.340903 0.949562,-0.640534 0.337834,-0.43077 0.461957,-0.800421 0.43992,-1.310117 -0.01661,-0.384054 -0.104036,-0.592244 -0.337174,-0.80287 -0.229176,-0.207047 -0.405037,-0.269098 -0.713594,-0.251785 -0.339349,0.01904 -0.59215,0.119415 -0.892361,0.354314 -0.601419,0.470579 -0.893221,1.302449 -0.690725,1.969124 0.165059,0.543421 0.666381,0.818126 1.244372,0.681868 z m -0.412228,-0.495809 c -0.314801,-0.1313 -0.474117,-0.43174 -0.444969,-0.839128 0.04146,-0.5794 0.495269,-1.093548 1.041977,-1.18051 0.346045,-0.05504 0.676556,0.174514 0.784154,0.544637 0.233871,0.80449 -0.671243,1.771099 -1.381162,1.475001 z M 11.60797,12.170813 c 0.0066,-0.803685 0.347508,-1.428831 1.021222,-1.872759 0.424283,-0.279572 0.862778,-0.4320122 1.242686,-0.4320122 0.08225,0 0.148797,-0.011567 0.147879,-0.025704 C 14.01884,9.8262001 13.906518,9.695154 13.770154,9.549124 L 13.52222,9.2836145 13.252506,9.2494182 c -0.659831,-0.083658 -1.381703,0.1997246 -1.755874,0.6892966 -0.263136,0.3442942 -0.449151,0.8141902 -0.508406,1.2843002 -0.02835,0.224963 0.03373,0.563776 0.142734,0.778877 0.0908,0.179177 0.371653,0.503161 0.43611,0.503077 0.02522,-3.3e-5 0.03908,-0.113304 0.0409,-0.334156 z m -3.0555034,0.05277 C 8.57804,12.161598 9.0030873,11.131551 9.4970164,9.9345867 9.9909451,8.7376222 10.402276,7.7408002 10.411085,7.7194265 10.419894,7.6980529 10.183066,7.3973124 9.8847996,7.0511143 9.3609963,6.4431338 8.6696828,5.6222232 8.3150677,5.1871121 7.08937,3.6831867 6.426933,2.8327858 5.639253,1.7520452 5.4022657,1.4268856 5.2008052,1.1608459 5.1915629,1.1608459 c -0.00924,0 -0.1300957,0.2351945 -0.2685631,0.5226545 -0.9383653,1.948053 -1.5881273,4.1761717 -1.8162823,6.2282695 l -0.047713,0.429149 0.1090085,0.1156924 c 0.2209927,0.2345427 1.3742739,1.2435657 1.8135936,1.5867407 1.1558468,0.90289 2.4321453,1.741318 3.3775036,2.218755 l 0.1468593,0.07417 z M 7.0679987,5.9344052 C 6.9244939,5.8077871 6.3945267,5.2958643 5.8902937,4.7967989 5.1365876,4.0508172 4.9735063,3.8727776 4.9735063,3.7959201 c 0,-0.1931026 0.3687491,-0.9557254 0.4621195,-0.9557254 0.026378,0 0.1213247,0.096391 0.2109923,0.2142027 0.2951463,0.3877849 0.9144078,1.1322402 1.2755693,1.533447 0.1952575,0.2169074 0.4767198,0.5298068 0.6254717,0.6953323 0.1487523,0.1655255 0.2704585,0.3214548 0.2704585,0.3465096 0,0.1093044 -0.3346401,0.5290199 -0.4245308,0.5324592 C 7.3580182,6.1635061 7.2115035,6.0610233 7.0679987,5.9344052 Z M 10.546506,12.13659 c -0.108011,-0.475773 -0.108447,-0.802666 -0.0016,-1.22855 0.214267,-0.85437 0.765678,-1.6212268 1.387102,-1.9290665 0.484209,-0.2398666 1.020919,-0.2958334 1.534675,-0.1600324 0.2588,0.068409 0.305156,0.107394 0.587124,0.4937752 0.138639,0.1899765 0.263472,0.3383658 0.277407,0.3297531 0.02872,-0.017747 0.383243,-0.6348678 0.447548,-0.779041 0.02316,-0.051917 0.03466,-0.1018377 0.02556,-0.110936 -0.02009,-0.020093 -3.770915,-0.46805 -3.786721,-0.4522442 -0.01655,0.016554 -1.8285484,3.8955588 -1.8285484,3.9144428 0,0.0089 0.3102497,0.01615 0.6894439,0.01615 H 10.567902 Z M 0.9633064,9.6027953 C 1.1187545,9.1889675 1.1474045,8.9433572 1.1484817,8.0153309 1.1495304,7.1122741 1.1063557,6.6469097 0.93290367,5.691666 0.79668072,4.9414525 0.99517118,4.252963 1.4236868,3.9893197 1.5741318,3.8967589 1.6205775,3.8857841 1.8520922,3.8880902 2.0963785,3.8905235 2.2732766,3.9409802 2.6998113,4.1298856 2.7425864,4.14883 2.8649057,3.7853619 2.8330831,3.7338721 2.7943724,3.6712366 2.3080278,3.5793956 2.0089416,3.5782418 1.5923319,3.5766344 1.3197896,3.6607797 1.0991866,3.8591205 0.91909771,4.0210361 0.74441733,4.3299146 0.70670635,4.553124 c -0.0128299,0.07594 -0.037383,0.1293859 -0.0545627,0.1187683 -0.0183474,-0.011339 -0.0312352,0.2298337 -0.0312352,0.5845084 0,0.332097 0.0132549,0.5956208 0.0294551,0.5856084 0.0162002,-0.010012 0.0402276,0.1548706 0.0533947,0.3664062 0.0131668,0.2115356 0.060557,0.6776392 0.10531162,1.035786 0.14715414,1.1776012 0.14337046,1.3700865 -0.0357317,1.8177721 l -0.0838393,0.2095652 0.0855083,0.2514051 c 0.0470297,0.1382728 0.0917809,0.2576775 0.0994473,0.2653439 0.007666,0.00767 0.04765,-0.075805 0.0888519,-0.1854923 z M 15.015327,8.2375913 c 0,-0.00971 -0.122187,-0.268034 -0.271526,-0.5740631 C 14.388542,6.9355247 13.722013,5.7266132 13.331607,5.1021748 13.266788,4.9985007 13.167998,4.8384186 13.112073,4.7464366 12.939271,4.4622263 12.388631,3.6711748 12.158041,3.3758701 L 11.938762,3.0950514 8.8777644,1.9405133 C 7.1942158,1.3055173 5.8100506,0.79269143 5.8018417,0.80090029 5.7760541,0.82668775 7.030454,2.6894497 7.5443892,3.3885535 c 1.1381279,1.54819 1.8263974,2.4099626 2.8441598,3.5611349 0.160224,0.1812258 0.334126,0.3811204 0.38645,0.4442101 l 0.09513,0.1147084 2.029756,0.3727822 c 2.056478,0.3776897 2.115438,0.3876174 2.115438,0.3562022 z M 3.0982807,5.974447 C 3.108595,5.9376683 3.1271525,5.8304638 3.1395197,5.7362146 3.2131214,5.1753111 3.5113381,3.9283973 3.7243128,3.2910583 3.7894732,3.0960622 3.94839,2.7104974 4.0774613,2.4342477 4.206533,2.157998 4.3330839,1.8737732 4.3586861,1.8026372 4.4048038,1.674499 4.4040371,1.6721141 4.2760577,1.545594 L 4.1468801,1.4178891 4.0669589,1.516609 C 3.7295925,1.9333295 3.2590382,3.2044849 3.056833,4.2453641 2.9741162,4.6711593 2.8822236,5.3619992 2.8845054,5.5409036 2.8865583,5.7019624 3.0702339,6.0744595 3.0982807,5.974447 Z"
       id="path854"
       inkscape:connector-curvature="0" />
  </g>
</svg>
